<?xml version="1.0" encoding="UTF-8"?>
<svg id="Layer_1" data-name="Layer 1" xmlns="http://www.w3.org/2000/svg" viewBox="0 0 599.41 57.74">
  <defs>
    <style>
      .cls-1 {
        fill: #fff;
      }
    </style>
  </defs>
  <path class="cls-1" d="M85.97,56.94h-20.85V30.24l-15.32,26.71h-13.63l-15.32-26.71v26.71H0V.8H25.66l17.32,32.08L60.31,.8h25.66V56.94Z"/>
  <path class="cls-1" d="M87.58,28.79C87.58,9.3,98.17,0,122.87,0s35.29,9.38,35.29,28.79-10.67,28.95-35.29,28.95-35.29-9.38-35.29-28.95Zm49.72,0c0-5.85-2.09-11.15-14.44-11.15s-14.44,5.21-14.44,11.15,2.17,11.31,14.44,11.31,14.44-5.37,14.44-11.31Z"/>
  <path class="cls-1" d="M232.9,.8V56.94h-27.27l-24.22-33.12V56.94h-20.85V.8h27.27l24.22,33.12V.8h20.85Z"/>
  <path class="cls-1" d="M234.5,28.79c0-19.49,10.59-28.79,35.29-28.79s35.29,9.38,35.29,28.79-10.67,28.95-35.29,28.95-35.29-9.38-35.29-28.95Zm49.72,0c0-5.85-2.09-11.15-14.44-11.15s-14.44,5.21-14.44,11.15,2.17,11.31,14.44,11.31,14.44-5.37,14.44-11.31Z"/>
  <path class="cls-1" d="M365.23,39.3v17.64h-57.74V.8h20.85V39.3h36.89Z"/>
  <path class="cls-1" d="M388.49,56.94h-20.85V.8h20.85V56.94Z"/>
  <path class="cls-1" d="M459.86,18.45h-24.06V56.94h-20.85V18.45h-24.06V.8h68.97V18.45Z"/>
  <path class="cls-1" d="M536.86,.8V56.94h-20.85v-19.25h-32.88v19.25h-20.85V.8h20.85V20.05h32.88V.8h20.85Z"/>
  <path class="cls-1" d="M560.91,16.84v5.21h38.5v13.63h-38.5v5.21h38.5v16.04h-59.35V.8h59.35V16.84h-38.5Z"/>
</svg>